<svg width="800" height="400" viewBox="0 0 800 400" xmlns="http://www.w3.org/2000/svg"><mask id="satori_om-id"><rect x="0" y="0" width="800" height="400" fill="#fff"/></mask><rect x="0" y="0" width="800" height="400" fill="#fff"/><mask id="satori_om-id-0"><rect x="260" y="201" width="281" height="38" fill="#fff"/></mask><path fill="black" d="M276.6 208.7L281.5 208.7L281.5 232L277.2 232L267.1 217.4L266.9 217.4L266.9 232L262.0 232L262.0 208.7L266.3 208.7L276.4 223.4L276.6 223.4L276.6 208.7ZM291.9 232.3L291.9 232.3Q289.9 232.3 288.3 231.3Q286.7 230.2 285.7 228.2Q284.8 226.2 284.8 223.3L284.8 223.3Q284.8 220.3 285.8 218.3Q286.7 216.3 288.3 215.3Q290.0 214.3 291.9 214.3L291.9 214.3Q293.3 214.3 294.3 214.8Q295.3 215.3 295.9 216.0Q296.5 216.8 296.8 217.5L296.8 217.5L297.0 217.5L297.0 208.7L301.8 208.7L301.8 232L297.0 232L297.0 229.2L296.8 229.2Q296.5 229.9 295.9 230.6Q295.3 231.4 294.3 231.8Q293.3 232.3 291.9 232.3ZM293.4 228.4L293.4 228.4Q294.6 228.4 295.4 227.8Q296.2 227.1 296.7 226.0Q297.1 224.8 297.1 223.3L297.1 223.3Q297.1 221.7 296.7 220.6Q296.2 219.4 295.4 218.8Q294.6 218.2 293.4 218.2L293.4 218.2Q292.2 218.2 291.4 218.8Q290.6 219.5 290.2 220.6Q289.8 221.8 289.8 223.3L289.8 223.3Q289.8 224.8 290.2 226.0Q290.6 227.1 291.4 227.8Q292.2 228.4 293.4 228.4ZM308.8 238.5L308.8 238.5Q307.9 238.5 307.1 238.4Q306.2 238.3 305.7 238.0L305.7 238.0L306.8 234.4Q307.7 234.7 308.4 234.7Q309.0 234.7 309.6 234.4Q310.1 234.1 310.4 233.2L310.4 233.2L310.7 232.5L304.4 214.5L309.5 214.5L313.1 227.4L313.3 227.4L316.9 214.5L322.1 214.5L315.3 233.9Q314.8 235.3 313.9 236.3Q313.1 237.4 311.8 238.0Q310.6 238.5 308.8 238.5ZM329.0 232.3L329.0 232.3Q327.4 232.3 326.0 231.7Q324.7 231.2 324.0 230.0Q323.2 228.9 323.2 227.1L323.2 227.1Q323.2 225.7 323.8 224.7Q324.3 223.7 325.2 223.1Q326.1 222.5 327.3 222.2Q328.5 221.9 329.8 221.8L329.8 221.8Q331.3 221.6 332.2 221.4Q333.2 221.3 333.6 221.0Q334.0 220.7 334.0 220.2L334.0 220.2L334.0 220.1Q334.0 219.0 333.3 218.4Q332.7 217.9 331.4 217.9L331.4 217.9Q330.1 217.9 329.3 218.4Q328.6 219 328.3 219.9L328.3 219.9L323.8 219.5Q324.2 217.9 325.2 216.7Q326.2 215.6 327.8 214.9Q329.4 214.3 331.4 214.3L331.4 214.3Q332.9 214.3 334.2 214.7Q335.6 215 336.6 215.7Q337.6 216.4 338.2 217.6Q338.9 218.7 338.9 220.2L338.9 220.2L338.9 232L334.3 232L334.3 229.6L334.1 229.6Q333.7 230.4 333.0 231.0Q332.3 231.6 331.3 232.0Q330.3 232.3 329.0 232.3ZM330.4 229.0L330.4 229.0Q331.5 229.0 332.3 228.6Q333.1 228.1 333.6 227.4Q334.0 226.7 334.0 225.8L334.0 225.8L334.0 223.9Q333.8 224.1 333.4 224.2Q333.0 224.3 332.5 224.4Q332.1 224.5 331.6 224.6Q331.1 224.6 330.7 224.7L330.7 224.7Q329.8 224.8 329.2 225.1Q328.6 225.4 328.2 225.8Q327.9 226.3 327.9 227.0L327.9 227.0Q327.9 228.0 328.6 228.5Q329.3 229.0 330.4 229.0ZM347.5 232L342.7 232L342.7 208.7L347.5 208.7L347.5 217.5L347.7 217.5Q348.0 216.8 348.6 216.0Q349.2 215.3 350.2 214.8Q351.2 214.3 352.7 214.3L352.7 214.3Q354.6 214.3 356.2 215.3Q357.8 216.3 358.8 218.3Q359.7 220.3 359.7 223.3L359.7 223.3Q359.7 226.2 358.8 228.2Q357.9 230.2 356.2 231.3Q354.6 232.3 352.6 232.3L352.6 232.3Q351.2 232.3 350.3 231.8Q349.3 231.4 348.6 230.6Q348.0 229.9 347.7 229.2L347.7 229.2L347.5 229.2L347.5 232ZM347.4 223.3L347.4 223.3Q347.4 224.8 347.9 226.0Q348.3 227.1 349.1 227.8Q349.9 228.4 351.1 228.4L351.1 228.4Q352.3 228.4 353.1 227.8Q353.9 227.1 354.4 226.0Q354.8 224.8 354.8 223.3L354.8 223.3Q354.8 221.8 354.4 220.6Q353.9 219.5 353.1 218.8Q352.3 218.2 351.1 218.2L351.1 218.2Q349.9 218.2 349.1 218.8Q348.3 219.4 347.9 220.6Q347.4 221.7 347.4 223.3ZM367.9 232.3L367.9 232.3Q366.2 232.3 364.9 231.7Q363.6 231.2 362.9 230.0Q362.1 228.9 362.1 227.1L362.1 227.1Q362.1 225.7 362.7 224.7Q363.2 223.7 364.1 223.1Q365.0 222.5 366.2 222.2Q367.4 221.9 368.7 221.8L368.7 221.8Q370.2 221.6 371.1 221.4Q372.1 221.3 372.5 221.0Q372.9 220.7 372.9 220.2L372.9 220.2L372.9 220.1Q372.9 219.0 372.2 218.4Q371.6 217.9 370.3 217.9L370.3 217.9Q369.0 217.9 368.2 218.4Q367.5 219 367.2 219.9L367.2 219.9L362.7 219.5Q363.1 217.9 364.1 216.7Q365.1 215.6 366.7 214.9Q368.2 214.3 370.3 214.3L370.3 214.3Q371.8 214.3 373.1 214.7Q374.5 215 375.5 215.7Q376.5 216.4 377.1 217.6Q377.7 218.7 377.7 220.2L377.7 220.2L377.7 232L373.2 232L373.2 229.6L373.0 229.6Q372.6 230.4 371.9 231.0Q371.2 231.6 370.2 232.0Q369.2 232.3 367.9 232.3ZM369.3 229.0L369.3 229.0Q370.4 229.0 371.2 228.6Q372.0 228.1 372.5 227.4Q372.9 226.7 372.9 225.8L372.9 225.8L372.9 223.9Q372.7 224.1 372.3 224.2Q371.9 224.3 371.4 224.4Q371.0 224.5 370.5 224.6Q370.0 224.6 369.6 224.7L369.6 224.7Q368.7 224.8 368.1 225.1Q367.5 225.4 367.1 225.8Q366.7 226.3 366.7 227.0L366.7 227.0Q366.7 228.0 367.5 228.5Q368.2 229.0 369.3 229.0ZM389.4 238.9L389.4 238.9Q387.0 238.9 385.3 238.3Q383.7 237.6 382.7 236.5Q381.7 235.4 381.4 234.0L381.4 234.0L385.9 233.4Q386.1 234.0 386.5 234.4Q387.0 234.9 387.7 235.2Q388.4 235.4 389.5 235.4L389.5 235.4Q391.1 235.4 392.1 234.7Q393.1 233.9 393.1 232.1L393.1 232.1L393.1 228.9L392.9 228.9Q392.6 229.6 392.0 230.3Q391.3 230.9 390.3 231.3Q389.3 231.8 387.9 231.8L387.9 231.8Q386.0 231.8 384.4 230.8Q382.8 229.9 381.8 228.0Q380.9 226.1 380.9 223.2L380.9 223.2Q380.9 220.3 381.8 218.3Q382.8 216.3 384.4 215.3Q386.0 214.3 387.9 214.3L387.9 214.3Q389.4 214.3 390.4 214.8Q391.4 215.3 392.0 216.0Q392.6 216.8 392.9 217.5L392.9 217.5L393.1 217.5L393.1 214.5L397.9 214.5L397.9 232.2Q397.9 234.4 396.8 235.9Q395.7 237.4 393.8 238.2Q391.9 238.9 389.4 238.9ZM389.5 228.1L389.5 228.1Q390.6 228.1 391.5 227.5Q392.3 226.9 392.7 225.8Q393.1 224.8 393.1 223.2L393.1 223.2Q393.1 221.7 392.7 220.6Q392.3 219.4 391.5 218.8Q390.6 218.2 389.5 218.2L389.5 218.2Q388.3 218.2 387.5 218.8Q386.6 219.5 386.2 220.6Q385.8 221.7 385.8 223.2L385.8 223.2Q385.8 224.7 386.2 225.8Q386.7 226.9 387.5 227.5Q388.3 228.1 389.5 228.1ZM404.8 238.5L404.8 238.5Q403.8 238.5 403.0 238.4Q402.2 238.3 401.7 238.0L401.7 238.0L402.8 234.4Q403.7 234.7 404.3 234.7Q405.0 234.7 405.5 234.4Q406.0 234.1 406.4 233.2L406.4 233.2L406.6 232.5L400.4 214.5L405.5 214.5L409.1 227.4L409.3 227.4L412.9 214.5L418.0 214.5L411.3 233.9Q410.8 235.3 409.9 236.3Q409.1 237.4 407.8 238.0Q406.6 238.5 404.8 238.5ZM427.9 232.3L427.9 232.3Q425.2 232.3 423.3 231.2Q421.3 230.1 420.3 228.1Q419.2 226.1 419.2 223.4L419.2 223.4Q419.2 220.7 420.3 218.6Q421.3 216.6 423.2 215.5Q425.1 214.3 427.7 214.3L427.7 214.3Q429.4 214.3 430.9 214.9Q432.4 215.4 433.5 216.5Q434.7 217.6 435.3 219.3Q435.9 221.0 435.9 223.2L435.9 223.2L435.9 224.5L421.2 224.5L421.2 221.5L431.4 221.5Q431.4 220.5 430.9 219.7Q430.4 218.9 429.6 218.4Q428.8 217.9 427.8 217.9L427.8 217.9Q426.7 217.9 425.8 218.4Q425.0 218.9 424.5 219.8Q424.0 220.6 424.0 221.7L424.0 221.7L424.0 224.5Q424.0 225.8 424.5 226.8Q425.0 227.7 425.9 228.2Q426.8 228.7 428.0 228.7L428.0 228.7Q428.8 228.7 429.5 228.5Q430.1 228.3 430.6 227.8Q431.1 227.4 431.3 226.7L431.3 226.7L435.8 227Q435.5 228.6 434.4 229.8Q433.4 231.0 431.7 231.7Q430.1 232.3 427.9 232.3Z M452.6 232L447.6 232L447.6 208.7L452.6 208.7L452.6 218.3L462.6 218.3L462.6 208.7L467.5 208.7L467.5 232L462.6 232L462.6 222.4L452.6 222.4L452.6 232ZM479.4 232.3L479.4 232.3Q476.7 232.3 474.8 231.2Q472.8 230.1 471.8 228.1Q470.7 226.1 470.7 223.4L470.7 223.4Q470.7 220.7 471.8 218.6Q472.8 216.6 474.7 215.5Q476.6 214.3 479.2 214.3L479.2 214.3Q480.9 214.3 482.4 214.9Q483.9 215.4 485.0 216.5Q486.1 217.6 486.8 219.3Q487.4 221.0 487.4 223.2L487.4 223.2L487.4 224.5L472.7 224.5L472.7 221.5L482.8 221.5Q482.8 220.5 482.4 219.7Q481.9 218.9 481.1 218.4Q480.3 217.9 479.3 217.9L479.3 217.9Q478.2 217.9 477.3 218.4Q476.5 218.9 476 219.8Q475.5 220.6 475.5 221.7L475.5 221.7L475.5 224.5Q475.5 225.8 476.0 226.8Q476.5 227.7 477.4 228.2Q478.3 228.7 479.5 228.7L479.5 228.7Q480.3 228.7 480.9 228.5Q481.6 228.3 482.1 227.8Q482.6 227.4 482.8 226.7L482.8 226.7L487.3 227Q487.0 228.6 485.9 229.8Q484.9 231.0 483.2 231.7Q481.5 232.3 479.4 232.3ZM495.4 221.9L495.4 221.9L495.4 232L490.6 232L490.6 214.5L495.2 214.5L495.2 217.6L495.4 217.6Q496.0 216.1 497.3 215.2Q498.7 214.3 500.6 214.3L500.6 214.3Q502.4 214.3 503.8 215.1Q505.1 215.9 505.9 217.4Q506.6 218.9 506.6 220.9L506.6 220.9L506.6 232L501.8 232L501.8 221.8Q501.8 220.1 501.0 219.2Q500.2 218.3 498.7 218.3L498.7 218.3Q497.7 218.3 497.0 218.8Q496.2 219.2 495.8 220.0Q495.4 220.8 495.4 221.9ZM515.3 232L510.5 232L510.5 214.5L515.1 214.5L515.1 217.6L515.3 217.6Q515.8 216.0 516.9 215.1Q518.1 214.3 519.5 214.3L519.5 214.3Q519.9 214.3 520.3 214.3Q520.7 214.4 521.0 214.5L521.0 214.5L521.0 218.8Q520.7 218.7 520.1 218.6Q519.5 218.5 519 218.5L519 218.5Q517.9 218.5 517.1 219.0Q516.3 219.4 515.8 220.2Q515.3 221.1 515.3 222.1L515.3 222.1L515.3 232ZM527.1 238.5L527.1 238.5Q526.1 238.5 525.3 238.4Q524.5 238.3 524.0 238.0L524.0 238.0L525.1 234.4Q526.0 234.7 526.7 234.7Q527.3 234.7 527.8 234.4Q528.4 234.1 528.7 233.2L528.7 233.2L529.0 232.5L522.7 214.5L527.8 214.5L531.4 227.4L531.6 227.4L535.2 214.5L540.4 214.5L533.6 233.9Q533.1 235.3 532.2 236.3Q531.4 237.4 530.1 238.0Q528.9 238.5 527.1 238.5Z "/></svg>